<svg viewBox="0 0 841.5 224.9">
  <path fill="#fff" d="M842 225.2H.3V-.5H842v225.7ZM10.4 216h821.4V8.8H10.4v207.3Z"/>
  <g fill="#fff">
    <path d="M4.8 4.1v212.2h220.6V4.1H4.8Zm184.4 78.7c0 4.5-3.5 8-7.9 8-4.3 0-7.8-3.6-7.8-8.1s3.6-8.2 7.9-8.1c4.3 0 7.8 3.7 7.8 8.2Zm-13-28.7c4.3 0 7.8 3.7 7.8 8.1 0 4.5-3.5 8.1-7.9 8.1s-7.8-3.6-7.8-8.2c0-4.5 3.5-8.1 7.9-8.1Zm-17.9-10.8c4.7 0 8.1 4.1 7.9 8.2 0 4.5-3.5 8.1-7.8 8.1-4.4 0-7.8-3.6-7.8-8.1s3.5-8.2 7.8-8.2Zm-19.8 6.5c4.4 0 7.9 3.6 7.9 8.1s-3.5 8.1-7.9 8.1c-4.7 0-7.9-4.1-7.8-8.1 0-4.6 3.4-8.1 7.8-8.1Zm-36.9-15.2c3.3 1.1 6.6 2.1 9.8 3.2.2-.2.4-.5.6-.7.4-.3.3-.6.2-1-1.2-3.9-2.4-7.9-3.6-11.8 0-.2 0-.3-.1-.5h14.3c-.6 2-1.2 4-1.8 5.9-.6 1.9-1.1 3.7-1.7 5.6-.3 1-.5 1.8.7 2.4 3.1-1 6.4-2.1 9.7-3.2v15.1c-1.7-.9-3.3-1.8-5-2.7-1.6-.9-3.2-1.8-4.9-2.7 0 0-.1 0-.2.1-.9.6-.8 1.3-.5 2.3 1.8 5.4 3.5 10.8 5.2 16.3 1.8 5.7-1.6 11.6-7.4 12.6-5 .9-9.9-3-10.6-8.3-.2-1.5 0-3 .4-4.4 1.8-5.7 3.7-11.5 5.5-17.2v-.2c-.4-.3-.7-.6-1.2-1-3 1.7-6.3 3.4-9.6 5.2V34.5Zm-8.9 15.2c4.1 0 7.9 3.7 7.7 8.2 0 4.5-3.5 8.1-7.8 8.1s-7.8-3.6-7.8-8.1 3.5-8.1 8-8.2Zm-7 38.7c.3 2.8-.2 5.5-1 8.1-.4 1.2-.8 2.4-1.3 3.8.5-.4.8-.7 1.1-1 1.5-1.2 3.2-2 5.2-1.7 2.6.4 4.4 2.5 4.5 5.3 0 1.6-.2 3.2-.3 4.8h-.3c-.3-.4-.6-.8-1-1.2-1.1-1.2-2.4-2.1-4-1.6-1.7.5-2.5 2-2.9 3.7-.7 3.4.6 6 3.1 8s5.4 2.9 8.5 3.1c3 .2 5.9-.1 8.7-1.3 3.6-1.5 5.6-4.5 6.4-8.3.4-2.1.6-4.2.8-6.4 0 0-.2-.2-.2-.3-1 .2-2 .3-2.9.6-3 1.1-5.2 3.2-7.3 5.6-.6.7-1.2 1.5-1.9 2.4-.5-6.3-1.1-12.5-1.6-19 3.8 4.1 8.2 6.2 13.7 6.2-2-5.1-5.4-9.1-8.7-13.3h22.6c-3.3 4.2-6.7 8.2-8.7 13.4 5.5 0 10-2 13.8-6.3-.5 6.5-1.1 12.6-1.6 19-3.3-4.1-6.5-8.1-12.2-8.5.1 3.5.3 6.8 1.8 9.8 1.3 2.8 3.5 4.5 6.3 5.4 4.4 1.4 8.8 1.4 13.1-.4 2.1-.9 3.9-2.1 5.1-4.1 1.5-2.3 1.7-4.8.5-7.3-1.2-2.6-3.8-3-5.8-1.1-.6.5-1 1.2-1.6 1.8-.7-2.7-1.1-5.3.4-7.8 1.5-2.6 4.6-3.2 7.4-1.6.8.5 1.6 1.1 2.4 1.7-.2-.5-.3-.9-.4-1.2-1-2.9-1.9-5.8-1.8-9 0-3.1.9-5.8 2.7-8.3 1.4-2 3-3.6 5-5.1 2.7 3.8 4.7 7.7 4.2 12.6-.5 4.7-3.2 8.3-6.2 11.6 1-.2 1.9-.6 2.8-.6 2.4-.2 4.5.4 5.9 2.6 1 1.5 1 3.3.6 5-.3 1.3-.7 2.5-1.1 3.6-.8-1.1-1.5-2.2-2.4-3-1.7-1.6-4-1.2-5.4.7-3.2 4.3-1 10.7 4.3 12.1 2.5.7 4.8 0 6.9-1.3 3.6-2.3 6.9-7.2 8.7-11.5-3.2 0-5.6 2-8.2 3.7 1.7-6 3.4-11.8 5.1-17.6 1.2 3.5 2.2 6.9 4.8 9.7 1.5-4 .7-7.8 0-11.8 3.6 1.3 7.1 2.6 10.6 3.9 0 .2-.2.3-.3.5-5.2 7.5-8.8 15.8-11.5 24.6-1.4 4.4-2.5 8.8-3.6 13.3-.2.6-.4.7-.9.6-6.1-.7-12.2-1.6-18.3-2.1-6.1-.5-12.1-.9-18.2-1.1-7.6-.3-15.1-.4-22.7-.3-5.9 0-11.7.4-17.6.8-4.3.2-8.7.6-13 1-4.7.5-9.3 1.1-13.9 1.7h-.7c-3.3-13.8-7.5-27.2-15.7-38.9 3.5-1.3 7-2.6 10.7-3.9-.6 4-1.5 7.8 0 11.8 2.5-2.8 3.6-6.3 4.7-10 1.7 6 3.4 11.8 5.2 17.8-2.7-1.7-5-3.6-8.3-3.7.4.9.7 1.6 1.1 2.3 1.9 3.6 4.1 6.9 7.5 9.1 2.9 1.9 5.9 2.4 9.1.6 3.8-2.2 5-7.6 2.4-11.1-1.6-2.2-4.4-2.4-6.1-.2-.6.7-1.1 1.6-1.6 2.5-1-2.3-1.8-4.6-1.2-7.2.8-3.1 3.9-4.3 6.5-4 .9.1 1.9.4 2.7.6-1-1.3-2.2-2.7-3.2-4.2-2-2.9-3.1-6.1-2.9-9.7.2-2.7 1.1-5.1 2.4-7.4.5-.9 1.1-1.8 1.8-2.9 1.1 1 2.2 2 3.2 3 2.4 2.5 4 5.4 4.4 8.9ZM65 50.4c.3-4.1 4.3-7.5 8.4-7.2 4.3.4 7.6 4.3 7.2 8.7-.3 4.5-4.1 7.9-8.3 7.5-4.7-.4-7.7-4.1-7.4-9.1Zm-9.9 3.7c4.3 0 7.8 3.6 7.8 8.2s-3.4 8.1-7.9 8.1c-4.3 0-7.8-3.6-7.8-8.1s3.6-8.1 7.9-8.1ZM50 74.6c4.2 0 7.7 3.7 7.7 8.2 0 4.5-3.6 8.1-7.9 8.1-4.4 0-7.8-3.6-7.8-8.1s3.5-8.1 8-8.1Zm1.8 127.2H34.4v-44.7h17.4c13.3 0 21.5 8.8 21.5 22.4s-8.2 22.4-21.5 22.4Zm49 0h-11l-14.7-44.7H85l10.3 34.7h.1l10.5-34.7h9.6l-14.7 44.7Zm35.5.6c-8.7 0-15.9-3.2-19.7-8.4l6.8-5.6c2.9 3.8 7.7 6.2 12.7 6.2s8.2-2.7 8.2-5.6-2.4-4.5-6-5.2l-7.9-1.4c-7.2-1.3-12.3-5.6-12.3-12.7s5.3-13.4 17.5-13.4 13.3 1.9 17.4 6.6l-7 5.2c-2.7-2.7-6.6-4.1-10.7-4.1s-7.7 2.4-7.7 5c0 3.9 4.1 4.8 7.5 5.4l6.5 1.2c7.7 1.4 12.2 5.7 12.2 12.3s-7.5 14.4-17.7 14.4Zm50.5-.6-2.7-9.2h-16l-2.7 9.2h-9.5l14.2-44.7h12.4l14.2 44.7h-10Z"/>
    <path d="m176.2 165.3-5.9 20.1h11.8l-5.8-20.1h-.1zm-125.8-.7h-7.1v29.6h7.1c9.8 0 13.7-6.6 13.7-14.8s-3.9-14.8-13.7-14.8Z"/>
  </g>
  <path fill="#fff" d="M318.8 97.3h-20.9l-3.4 14.1h-15.8l19.6-74.2H319l19.6 74.2H322l-3.3-14.1Zm-17.6-13.8h14.3l-7-30.3h-.2l-7.2 30.3Zm44.8 27.9V37.2h25.8c14.6 0 23.3 11.2 23.3 25.4S386.4 88 371.8 88h-10.9v23.3H346Zm24.3-38c5.5 0 9.3-4.3 9.3-10.8s-3.8-10.8-9.3-10.8h-9.4v21.6h9.4Zm33.2 38V37.2h25.8c14.6 0 23.3 11.2 23.3 25.4S443.9 88 429.3 88h-10.9v23.3h-14.9Zm24.3-38c5.5 0 9.3-4.3 9.3-10.8s-3.8-10.8-9.3-10.8h-9.4v21.6h9.4Zm33.1-36.2h26.6c16.5 0 24 12.3 24 23.5s-5.5 18.9-12.1 21.8l15.1 28.8h-17.2L484.8 86h-9v25.3h-14.9V37.2Zm25.3 34.5c7.4 0 9.9-5.1 9.9-10s-2.5-10-9.9-10h-10.3v19.9h10.3Zm63.6 40.8c-19.3 0-31.3-16.9-31.3-38.2s12-38.2 31.3-38.2 31.3 16.9 31.3 38.2-12 38.2-31.3 38.2Zm0-15c10.4 0 15.9-10.5 15.9-23.2s-5.4-23.2-15.9-23.2-15.9 10.7-15.9 23.2 5.4 23.2 15.9 23.2Zm53.6 13.9-20.3-74.2h16.6l13 54.7h.2l13.3-54.7h15.9l-20.3 74.2h-18.3Zm46.3-74.2h45.6v15.4h-30.7v13.8h25.1V81h-25.1v15.1h31.6v15.4h-46.5V37.2Zm56.1 0h26.3c18.7 0 30.6 14.8 30.6 37.1s-11.9 37.1-30.6 37.1h-26.3V37.2Zm23.9 59.6c12.9 0 17.6-10.4 17.6-22.5s-4.7-22.5-17.6-22.5h-9v44.9h9Zm-491.2 43.5h15.6c11.1 0 18.2 8.8 18.2 22.1s-7.1 22.1-18.2 22.1h-15.6v-44.1Zm14.2 35.4c7.7 0 10.5-6.2 10.5-13.4s-2.8-13.4-10.5-13.4h-5.3v26.7h5.3Zm25.4-35.4h15.8c9.8 0 14.2 7.3 14.2 14s-3.3 11.2-7.2 13l9 17.1h-10.2l-7.4-15.1H287v15.1h-8.8v-44.1Zm15 20.5c4.4 0 5.9-3 5.9-5.9s-1.5-5.9-5.9-5.9H287v11.8h6.1Zm21.6-20.5h8.8v44.1h-8.8v-44.1Zm25.4 44.1L328 140.3h9.9l7.7 32.5h.1l7.9-32.5h9.4l-12.1 44.1H340Zm27.5-44.1h8.8v44.1h-8.8v-44.1Zm16.5 0h9.2l16 27.3h.1v-27.3h8.8v44.1h-9.1l-16-27.3h-.1v27.3h-8.8v-44.1Zm68.1 39.1c-1.7 3.1-5.7 5.7-10.5 5.7-10.8 0-17.7-9.8-17.7-22.5s7.3-22.9 18.8-22.9 14.6 5 17 12.9l-8.3 3.1c-1.1-4-4.4-7.1-8.5-7.1-6.2 0-9.9 5.9-9.9 13.8s3.6 13.8 9.6 13.8 8-3.8 8.4-7.9h-8.7v-8.2h17.2v24.4h-7.3v-5h-.1Zm25.6-39.1h8.8v44.1h-8.8v-44.1Zm16.5 0h9.2l16 27.3h.1v-27.3h8.8v44.1h-9.1l-16-27.3h-.1v27.3h-8.8v-44.1Zm39 36.2 6.9-6.4c2.4 3.8 6.1 6.1 10.1 6.1s6.1-2.1 6.1-4.5-1.5-3.6-4.2-4.2l-6.9-1.4c-6.4-1.3-10.6-5.7-10.6-12.8s4.5-13.7 15.2-13.7 11.7 1.9 15.3 7.1l-7 5.9c-2.2-2.7-5.2-4.1-8.5-4.1s-5.6 2-5.6 4c0 3.5 3.7 3.9 6.1 4.4l5 1c6.6 1.3 10.6 5.6 10.6 12.3s-6.6 14.7-15.4 14.7-13.8-3-17.3-8.6Zm45.8-27.1h-11.2v-9.1h31.2v9.1h-11.2v35h-8.8v-35Zm24.7-9.1h15.8c9.8 0 14.2 7.3 14.2 14s-3.3 11.2-7.2 13l9 17.1h-10.2l-7.4-15.1h-5.3v15.1h-8.8v-44.1Zm15 20.5c4.4 0 5.9-3 5.9-5.9s-1.5-5.9-5.9-5.9h-6.1v11.8h6.1Zm44.5 6.5v-27h8.5v28.2c0 9.8-6 16.5-15.9 16.5s-16.2-6.7-16.2-16.5v-28.2h8.8v27c0 5.6 3 8.8 7.3 8.8s7.3-3.2 7.3-8.8Zm23.1-5c0 7.4 3 13.8 9.2 13.8s6.8-3 7.9-7.1l8.3 3.1c-2.5 8-8.3 12.9-16.4 12.9s-18.2-10-18.2-22.7 6.7-22.7 18.2-22.7 13.9 4.9 16.4 12.9l-8.3 3.1c-1.1-4-3.9-7.1-7.9-7.1-6.2 0-9.2 6.4-9.2 13.8Zm38.4-12.9h-11.2v-9.1h31.2v9.1h-11.2v35h-8.8v-35ZM765 185c-11.5 0-18.6-10-18.6-22.7s7.1-22.7 18.6-22.7 18.6 10 18.6 22.7S776.5 185 765 185Zm0-8.9c6.2 0 9.4-6.2 9.4-13.8s-3.2-13.8-9.4-13.8-9.4 6.4-9.4 13.8 3.2 13.8 9.4 13.8Zm24.3-35.8h15.8c9.8 0 14.2 7.3 14.2 14s-3.3 11.2-7.2 13l9 17.1h-10.2l-7.4-15.1h-5.3v15.1h-8.8v-44.1Zm15 20.5c4.4 0 5.9-3 5.9-5.9s-1.5-5.9-5.9-5.9h-6.1v11.8h6.1Z"/>
</svg>