<svg aria-hidden="true" focusable="false" xmlns="http://www.w3.org/2000/svg" xml:space="preserve" viewBox="0 0 1052.8 1035.2" fill="#fff">
  <path d="m322.5 30.4-12 12.1L49.8 303.7l-12 12.1v17l-.1 368.8v17.1l12 12 261 260.9 12 12h403.1l12-12 260.8-260.9 12-12v-403l-12-12-261-260.9-12-12h-16.9l-369-.3-17.2-.1zm386.1 41.5 260.9 260.8v369L708.7 962.6l-369.1-.1L78.7 701.7l.1-368.9L339.5 71.4l369.1.5z" class="st0"/>
  <path d="M275.8 604.4c.6 0 2.4-.1 5.5-.2s6.8-.4 10.9-.6c4.1-.3 8.6-.7 13.4-1.3s9.2-1.4 13.2-2.6c4.8-1.4 10.2-3.8 16.2-7 6-3.3 12.5-9.2 19.6-17.7 6.8-8 12.2-16.6 16.2-26s6.9-18.3 8.7-26.7c1.9-8.4 3-15.9 3.6-22.6s.9-11.4.9-14.3c0-9.9-.9-18-2.8-24.3s-3.9-11.2-6.2-14.9c-1.7-2.6-3.3-4.6-4.9-6.2s-2.9-2.6-4-3.2c-5.4-4-11.7-6.5-19-7.5-7.2-1-17.4-1.8-30.5-2.4h-19.2l-43.9 177.4 22.3.1zm34.1-239.2c11.9 0 24.3.3 37.1.8 12.8.6 25.3 2.3 37.5 5.3s23.6 7.6 34.1 13.9 19.6 15.1 27.3 26.4c2.5 3.7 4.9 7.7 7 12.2 2.1 4.4 4.1 9.4 5.8 15.1 1.7 5.7 3 12.1 4.1 19.2 1 7.1 1.5 15.4 1.5 24.7 0 6-.5 14.4-1.5 25.4-1 10.9-3.5 23.1-7.5 36.5s-10 27.1-18.1 41.2c-8.1 14.1-19.4 27.2-33.9 39.5-4.6 4-11.7 9.1-21.3 15.3-9.7 6.3-21.9 11.5-36.7 15.8-15.3 4.8-31.4 7.6-48.2 8.3-16.8.7-33.3 1.2-49.5 1.5h-88.3l75.5-301 75.1-.1zm153.8 301 75.5-301.1h78l-75 301.1zm310.5-224.7L720.5 546H775l-.8-104.5zm57.5-76.3 31.6 301h-80.6l-4.3-59.7h-88.7l-35 59.7h-84.8l184.2-301h77.6z" class="st0"/>
</svg>