<svg aria-hidden="true" focusable="false" xmlns="http://www.w3.org/2000/svg" xml:space="preserve" viewBox="0 0 600 534">
  <g fill="#FFF">
    <path d="M278 533.1c-.8-.4-5.5-1.1-10.5-1.4-10.5-.7-29.3-4.4-44.4-8.8-65.3-18.8-125.4-64.8-163.8-125.2C52.8 387.4 38 359.1 38 357c0-.7 3-4.3 6.7-8.1 5.7-5.9 6.5-7.3 5.6-8.7-1.2-1.8-20.6-33.2-37.1-60.2-5.3-8.5-10.3-17.7-11.4-20.5C-.1 254.2-.7 245 1 245c.6 0 1-1.1 1-2.5 0-3.9 3.3-11.3 12.6-28.2 4.8-8.7 10.5-19.2 12.7-23.3s5-8.9 6.3-10.6c2.7-3.7 19.4-15 23.3-15.9 2.4-.5 3.5-2 7.6-11.3 27.6-61.7 78.1-110 141.2-135.1 20.6-8.2 47.4-14.8 64.6-15.8 5.3-.3 9.7-1 9.7-1.5 0-1.1 35.3-.4 49.1 1 45.6 4.8 92.1 23.7 129.9 53 16 12.4 38.5 35.8 51.1 53.2 9 12.5 23.9 39.2 28.4 51.3 1.5 3.9 2.4 4.9 4.8 5.4 3.4.7 19.1 10.8 22.4 14.4 1.2 1.3 5.2 8 8.9 14.9s10.3 19 14.6 27 8.1 16.2 8.4 18.3c.4 2 1.1 4 1.5 4.3 1.2.7 1.2 15.4 0 15.4-.5 0-1.2 1.1-1.5 2.5-.3 1.3-5 9.5-10.3 18.2-5.3 8.7-14.6 23.9-20.6 33.8-6 9.9-12.5 20.4-14.4 23.4l-3.5 5.4 6.6 6.6c3.6 3.7 6.6 7.4 6.6 8.3 0 2.4-13.6 28.7-20 38.8-35.8 56.3-86.7 98.4-145.5 120.4-20.7 7.7-44.5 13.5-64.3 15.7-12.4 1.4-52.2 2.2-54.2 1zm57-8.1c68.6-9.5 130.6-44.6 176.7-100 15.2-18.2 29.3-39.7 39.3-60.1l3.3-6.6-16.9-16.9c-9.3-9.3-20.6-19.8-25.2-23.4-8.3-6.5-26.1-17.4-27-16.6-.2.3-1.7 4.2-3.3 8.8-13.7 39.2-43 75.6-78.9 97.9-35.5 22-80.9 32.3-122.5 27.8-31.1-3.3-56.3-11.7-81.3-26.8-14.2-8.6-20.9-13.8-34.1-26.6-22-21.4-38.2-46.6-46.6-72.5-1.5-4.7-2.9-8.7-3.1-8.9-.5-.6-15.8 8.1-21.4 12.2-9.7 7.2-27.2 23.2-37.8 34.6-9.8 10.5-10.2 11.1-8.9 13.3.8 1.3 4.1 7.5 7.4 13.8 27.1 52.5 75.3 99 130.2 125.7 22 10.6 41.4 17.2 64.1 21.7 29.4 5.8 57 6.6 86 2.6zm-8-96.6c52.2-7.5 98.4-36.8 128.5-81.5 9.5-14 24.5-47.3 24.5-54.3 0-2.1 1.8-2 5.8.4 1.8 1.1 3.6 2 4.1 2 .9 0 2.8-14.8 3.7-29 .7-12.8-.8-33.4-3.7-47.2-9.9-48.8-40-93.7-81.4-121.5-36-24.1-79.5-35.7-122.1-32.4-18.4 1.4-31.2 4-48.3 9.7-29.5 9.9-54.5 25.7-76.7 48.6-11.2 11.5-15.5 16.7-23.4 28.8-21 32-31 66.1-31 105.2 0 15.3 1.9 36 3.4 37.5.3.3 2-.4 3.9-1.6 1.9-1.1 3.9-2.1 4.4-2.1.6 0 2 3.5 3.2 7.7 3.1 10.4 11.7 30.2 17.6 40 28.8 48.5 78.9 82.1 134 89.7 19.7 2.8 33.8 2.8 53.5 0zM78 316.8c7.2-6.3 17.3-13.5 23.8-17 2-1 3.2-2.5 3.2-3.7 0-2.1-4.9-18.7-10.5-35.8-4.5-13.4-4.8-24.4-1-40.3 4.4-18.4 4.5-36 .4-40.1-2.5-2.5-7.9-2.5-11.1 0-5.1 4-11.6 20.8-13.2 34.1-1.9 15.5-5.4 25.3-10.2 28.7-2.8 2-5.4 2.6-10.3 2.4l-2.4-.1.6-14.7c.8-18 3.3-33.8 8.1-50.2 2-6.9 3.5-12.6 3.3-12.7-.6-.7-8.8 3.7-15 8.1-7.7 5.3-8.2 6-19.8 27.5-20.1 37.3-22.2 42.7-20.1 52.9 1 4.8 15.8 30 47 80.5l2.4 3.9 8.6-8.5c4.8-4.6 12.1-11.4 16.2-15zm470.4 21.7c.3-.8 10.8-18.2 23.2-38.6 12.5-20.4 23.4-39 24.2-41.3 1.7-5.1 1.2-13-1.6-20.7-1.9-5.6-20.8-41.2-27.5-52-3.4-5.6-11.1-12-20.2-16.8-3.2-1.7-4.1-1.9-4.3-.7-.2.8 1.3 7 3.2 13.8 5 17.6 6.6 27.5 7.4 45.9.7 16 .7 16.1-1.5 17-2.2.8-6.4 0-10.2-2-4.4-2.4-8.4-13.2-10.2-27.3-1.9-15.4-7.5-30.6-13-35.3-3.5-2.9-8.9-3.4-11.3-1-4.5 4.6-4.5 19.4 0 39 2 8.7 2.7 14.6 2.7 21.5 0 8.9-.4 10.8-6.1 28.5-7.2 22.3-8.5 27.3-7.9 29 .3.6 2.5 2.2 4.9 3.5 9.5 4.9 27.5 19.6 40.8 33.3 5.9 6.1 6.5 6.5 7.4 4.2z"/>
    <path d="M265.2 354.9c-31.7-2.4-73.4-11.9-90.6-20.6-14.9-7.6-28.4-27.9-38.6-58.4-8.8-26.4-12-54.3-7.6-66.9 5.1-14.6 16-25.8 34.1-34.8 25.1-12.5 48.7-19.2 86.5-24.4 14.6-2 20.5-2.3 52-2.3 31.6 0 37.3.3 51.5 2.3 30.7 4.4 51.4 9.6 72.7 18.2 29.8 12.1 44.9 26.6 48.9 46.8 4.5 23.2-10 76.1-27.6 100.7-5 6.9-13.4 15.3-18.5 18.3-4.7 2.7-25.8 9.7-38.8 12.8-14.5 3.4-39.1 7.1-55.2 8.4-15.3 1.1-53.4 1.1-68.8-.1zm83-50.4c2.8-1 6.2-3.3 8.3-5.6l3.5-3.9v-39h-24l-.2 18.8-.3 18.7h-7L328 275l-.5-18.5h-25l-.3 17.7c-.3 20 .3 22.8 6 27.1 5.4 4.2 12.8 5.7 24.8 5.3 6.4-.2 12.3-1 15.2-2.1zm-53.7-4v-5l-7.7-.3-7.8-.3v-39l-12.7.3-12.8.3-.3 23.5c-.1 12.9 0 24 .3 24.8.3 1 4.9 1.2 20.7 1l20.3-.3v-5zM402 304c8.5-2.4 14-8.4 14-15.4 0-5.4-5.2-10.4-14.8-14.1-4.1-1.5-7.6-3.4-7.9-4.3-.8-2.1 2.6-4.4 5.7-3.8 10.6 2 9.7 2.2 11.9-2.3 3.4-6.5 3.3-6.5-8.8-8-18.5-2.3-33.1 4.4-33.1 15.4 0 6 3.6 10 12.6 14.1 7.7 3.5 9.5 5.1 7.3 6.5-1.8 1.1-8.6 1.1-12.6 0-3.2-.9-3.3-.9-5.8 4.7-2 4.3-2.3 5.7-1.3 6.4 4.2 2.6 24.4 3.2 32.8.8zm-190.8-7.2.3-8.3 4-.1c19.1-.8 29.5-6.5 29.5-16.4 0-12-15.3-17.8-41.5-15.9-6.1.4-12.3 1.3-13.8 1.8L187 259v46h23.9l.3-8.2zm140.3-61.6c2.7-.9 6.6-3.4 8.7-5.4 3.4-3.4 3.8-4.3 3.8-9s-.3-5.4-3.9-8.9c-2.6-2.4-6.3-4.5-10.4-5.8-7.2-2.4-10.8-5.4-8.9-7.3 1.4-1.4 7.1-1.6 12.4-.5 3.6.8 3.8.7 5.8-3.2 1.1-2.2 2-4.7 2-5.5 0-1.9-6.8-3.1-18.5-3.1-10.8 0-17.8 2.1-22.3 6.8-8.8 9.1-5.2 18.2 9.5 24 3.9 1.6 7.4 3.5 7.7 4.2 1.2 3.3-6.8 4.3-15.1 1.9-1.9-.5-2.6.1-4.9 5.1-2.9 6.5-2.6 7.1 4.1 8 2.2.2 5.4.7 7 .9 5.4.8 17.9-.4 23-2.2zm54.8-.9c7.3-3.3 10.2-7.1 10.2-13.5 0-6.2-3.5-9.9-12.9-13.5-8.4-3.2-9.6-4-9.6-6.4 0-2.6 3.2-3.2 9.6-1.9 3.1.7 5.7 1 5.9.8.5-.5 4.5-8.7 4.5-9.2 0-1.9-16.7-3.8-24.6-2.7-15.8 2.3-24.2 12.2-18.4 21.7 1.8 2.8 4.1 4.5 9.9 7.2 9.6 4.3 10.5 5 9 6.8-1.3 1.6-9.5 1.9-13.3.4-2.4-.9-2.8-.6-5.1 4-1.4 2.7-2.5 5.4-2.5 5.9 0 1.4 2.9 2.3 10 3.1 10.3 1.3 20.7.2 27.3-2.7zm-195.5-5.9.3-8.1 8.8-.5c15.7-.9 24.1-6.7 24.1-16.5 0-11.8-17.2-18-42.7-15.3-6.4.6-12.2 1.4-12.9 1.7-1 .4-1.4 5.6-1.6 23.5-.2 12.6-.1 23.2.1 23.4.3.3 5.7.3 12 .2l11.6-.3.3-8.1zm52.3 5.4 1.4-3.3 9.2-.3 9.2-.3 1.5 3.6 1.5 3.5h12.5c7 0 12.6-.4 12.6-.9s-2.5-6.2-5.6-12.7c-3-6.6-7.8-16.8-10.7-22.9-2.8-6-5.5-11.6-6-12.2-.7-.9-4.6-1.3-13.4-1.3h-12.4l-6.3 13.3c-13.4 28-16.6 35-16.6 35.8 0 .5 4.9.9 10.8.9h10.8l1.5-3.2z"/>
    <path d="M211 272v-7h3.4c4.7 0 6.6 2.2 6.6 7.5 0 5-1.6 6.5-6.9 6.5H211v-7zm.2-68.2.3-7.3 3 .3c4.3.5 6 2.6 5.9 7.4-.2 4.7-2.2 6.8-6.6 6.8h-2.9l.3-7.2zm56.8 16.6c0-.4 1.4-4.5 3.2-9.1l3.2-8.4 2.7 8.3c1.5 4.6 2.5 8.6 2.2 9.1-.5.9-11.3 1-11.3.1z"/>
  </g>
</svg>